<svg width="131" height="137" viewBox="0 0 131 137" fill="none" xmlns="http://www.w3.org/2000/svg">
<path d="M92.1422 65.9855C89.6496 65.7909 87.3291 64.6386 85.6675 62.7703C84.0059 60.902 83.1324 58.4628 83.2302 55.9645C83.3513 52.886 83.4897 50.2597 83.4897 50.2597C83.4897 50.2597 75.6735 49.0604 75.5434 41.2292C75.4133 33.3981 76.7246 15.4143 76.7246 15.4143C81.1719 13.4914 86.052 12.7908 90.8606 13.3849C95.6693 13.979 100.232 15.8461 104.078 18.7936L105.243 19.6877L102.317 50.3514C102.225 51.6214 102.094 59.5544 101.522 60.6918C100.949 61.8293 100.158 62.8425 99.1928 63.6733C98.2278 64.504 97.1081 65.1359 95.8982 65.5327C94.6882 65.9295 93.4118 66.0834 92.1422 65.9855Z" fill="#FFBE9D"/>
<path d="M84.0683 36.9172C84.0794 36.8295 83.4119 36.6974 82.3245 36.5492C82.0431 36.5133 81.8206 36.4568 81.8026 36.3045C81.7917 36.0216 81.8599 35.7414 81.9996 35.4952L82.8515 33.3022C84.0248 30.1706 84.8453 27.5986 84.6839 27.5405C84.5226 27.4824 83.437 29.9643 82.2741 33.0879C81.9987 33.8497 81.7321 34.5797 81.4718 35.2966C81.2911 35.6606 81.2382 36.075 81.3217 36.4728C81.3627 36.5799 81.428 36.6759 81.5124 36.7534C81.5969 36.8309 81.6983 36.8877 81.8085 36.9193C81.9587 36.9603 82.114 36.9801 82.2697 36.9782C83.3851 37.0175 84.0623 37.0008 84.0683 36.9172Z" fill="#263238"/>
<path d="M83.4575 50.1477C87.0768 50.2115 90.6332 49.1968 93.674 47.2328C93.674 47.2328 91.2708 52.8749 83.4597 52.1872L83.4575 50.1477Z" fill="#EB996E"/>
<path d="M76.5765 17.383C76.5765 17.383 81.1612 20.0262 87.5697 17.38C91.7755 15.6479 96.5741 14.9995 97.5621 15.8897C98.5501 16.78 98.4642 20.9786 102.397 22.4885C102.397 22.4885 101.545 30.4474 104.749 30.3924C107.953 30.3373 106.849 17.8346 106.849 17.8346L99.3426 13.4731L90.9667 11.2601L82.8801 11.8123L76.556 13.0629L76.5765 17.383Z" fill="#263238"/>
<path d="M104.3 27.7802C104.433 27.7223 109.661 26.177 109.516 31.5307C109.372 36.8845 104.016 35.6195 104.012 35.469C104.008 35.3184 104.3 27.7802 104.3 27.7802Z" fill="#FFBE9D"/>
<path d="M105.707 33.5054C105.707 33.5054 105.796 33.5731 105.951 33.6491C106.17 33.752 106.42 33.7655 106.649 33.6867C107.222 33.4973 107.724 32.6098 107.777 31.6461C107.806 31.1886 107.731 30.7305 107.559 30.3057C107.513 30.137 107.428 29.9818 107.31 29.8532C107.192 29.7247 107.044 29.6266 106.88 29.5674C106.773 29.5331 106.658 29.5383 106.555 29.582C106.452 29.6257 106.369 29.705 106.319 29.8053C106.244 29.9551 106.287 30.0636 106.243 30.0721C106.2 30.0807 106.133 29.9784 106.185 29.76C106.216 29.6263 106.294 29.5083 106.405 29.4272C106.555 29.321 106.741 29.2774 106.922 29.3057C107.141 29.3568 107.343 29.4628 107.509 29.6136C107.675 29.7644 107.8 29.9551 107.872 30.1675C108.085 30.6383 108.18 31.1542 108.149 31.6702C108.087 32.7451 107.5 33.7391 106.72 33.9395C106.576 33.9766 106.425 33.9812 106.278 33.9528C106.132 33.9243 105.994 33.8637 105.874 33.7752C105.713 33.6375 105.686 33.5169 105.707 33.5054Z" fill="#EB996E"/>
<path d="M99.5247 17.0076C100.405 18.3366 101.452 19.5464 102.642 20.6072C103.852 21.672 105.431 22.2217 107.04 22.1391C108.622 21.98 110.152 20.8253 110.419 19.2514C110.685 17.6775 109.335 15.9488 107.751 16.0981C108.013 16.1355 108.28 16.1097 108.53 16.0229C108.78 15.9362 109.005 15.7909 109.188 15.5993C109.37 15.4076 109.504 15.1751 109.578 14.9212C109.653 14.6673 109.665 14.3993 109.615 14.1395C109.565 13.8797 109.453 13.6357 109.29 13.4278C109.126 13.2199 108.915 13.0542 108.674 12.9444C108.433 12.8346 108.17 12.7839 107.906 12.7965C107.641 12.8092 107.384 12.8849 107.155 13.0172C108.53 12.9348 108.949 10.8273 107.991 9.84253C107.034 8.85779 105.442 8.84209 104.118 9.19335C102.793 9.5446 101.525 10.189 100.155 10.3048C98.0069 10.4994 95.9745 9.34454 94.2621 8.03368C92.5496 6.72282 90.964 5.18908 88.9752 4.35391C86.5364 3.33474 83.7357 3.49757 81.1892 4.20381C79.0433 4.72552 77.075 5.80912 75.4865 7.34327C73.9586 8.92021 73.0172 11.1533 73.3167 13.3245C73.6161 15.4957 75.3585 17.4901 77.5391 17.7778C77.5391 17.7778 82.3707 18.8915 86.7334 16.4435C91.0962 13.9956 99.4619 15.4432 99.4619 15.4432L99.5247 17.0076Z" fill="#263238"/>
<path d="M107.657 11.8017C107.657 11.8017 107.547 11.8908 107.321 12.0073C107.095 12.1238 106.747 12.2809 106.297 12.4672C105.006 12.9687 103.661 13.3147 102.289 13.4978C100.245 13.7741 98.1704 13.7073 96.1493 13.3001C93.8624 12.8534 91.5207 11.7716 89.0643 10.8533C86.6079 9.93506 84.1543 9.28901 81.9193 9.53811C79.6842 9.7872 77.8231 10.8528 76.8868 12.2381C76.1211 13.3419 75.8026 14.6951 75.9956 16.0246C76.1022 16.5084 76.2503 16.9822 76.4383 17.4405C76.4383 17.4405 76.3376 17.348 76.1969 17.1285C76.0064 16.7971 75.8657 16.4395 75.7792 16.0673C75.6324 15.3748 75.6249 14.66 75.7571 13.9646C75.8893 13.2692 76.1587 12.6071 76.5494 12.0169C77.5235 10.4818 79.5194 9.27864 81.8641 9.01541C84.2088 8.75218 86.798 9.36398 89.2728 10.3221C91.7475 11.2803 94.0409 12.3371 96.262 12.7847C98.2294 13.1977 100.25 13.2974 102.248 13.0801C105.695 12.7044 107.645 11.6736 107.657 11.8017Z" fill="#455A64"/>
<path d="M109.014 20.2675C109.066 20.3022 108.829 20.797 108.173 21.3836C107.303 22.1423 106.215 22.6043 105.065 22.7029C103.916 22.8014 102.765 22.5312 101.779 21.9316C101.032 21.4705 100.714 21.0221 100.762 20.9767C100.81 20.9312 101.23 21.238 101.967 21.5993C102.915 22.0541 103.967 22.2467 105.015 22.157C106.063 22.0674 107.067 21.6987 107.924 21.0894C108.596 20.6032 108.927 20.2096 109.014 20.2675Z" fill="#455A64"/>
<path d="M107.697 17.4319C107.823 17.5135 107.295 18.4211 106.181 18.9961C105.066 19.5712 104.023 19.4848 104.033 19.3314C104.043 19.178 104.937 19.0062 105.922 18.4896C106.906 17.9731 107.569 17.3404 107.697 17.4319Z" fill="#455A64"/>
<path d="M73.5308 20.571C73.4616 20.5622 73.3406 20.2983 73.3644 19.8185C73.4051 19.1865 73.6482 18.5845 74.0577 18.1015C74.4672 17.6185 75.0213 17.2802 75.6381 17.1367C76.1194 17.0387 76.4012 17.1075 76.4062 17.1785C76.4329 17.3366 75.3049 17.5066 74.4926 18.4718C73.6803 19.4369 73.6877 20.591 73.5308 20.571Z" fill="#263238"/>
<path d="M71.7575 12.6473C71.9225 12.6028 72.3253 14.0746 73.5619 15.4044C74.7985 16.7342 76.2032 17.2979 76.1405 17.4586C76.0777 17.6194 74.4753 17.2461 73.1375 15.7909C71.7998 14.3356 71.6075 12.6469 71.7575 12.6473Z" fill="#455A64"/>
<path d="M77.9971 27.4837C77.9938 27.7965 78.1132 28.0982 78.3298 28.3239C78.5464 28.5496 78.8429 28.6814 79.1556 28.691C79.3083 28.7028 79.4618 28.6839 79.6072 28.6355C79.7525 28.587 79.8867 28.51 80.0018 28.409C80.1169 28.3079 80.2106 28.1848 80.2775 28.047C80.3443 27.9092 80.3829 27.7594 80.391 27.6064C80.3931 27.2939 80.2733 26.9929 80.0569 26.7675C79.8406 26.542 79.5448 26.4098 79.2325 26.3991C79.0798 26.3873 78.9262 26.4062 78.7809 26.4546C78.6356 26.503 78.5014 26.5801 78.3863 26.6811C78.2712 26.7822 78.1775 26.9052 78.1106 27.0431C78.0438 27.1809 78.0052 27.3307 77.9971 27.4837Z" fill="#263238"/>
<path d="M77.0873 27.2645C77.2362 27.4194 78.1429 26.7429 79.432 26.7434C80.7211 26.7439 81.6705 27.3854 81.8123 27.2301C81.8776 27.1587 81.7261 26.8769 81.3145 26.5759C80.7542 26.1919 80.0895 25.9892 79.4103 25.9953C78.738 25.992 78.0826 26.2059 77.5417 26.6052C77.1326 26.9093 77.0119 27.1939 77.0873 27.2645Z" fill="#263238"/>
<path d="M89.77 27.3553C89.7666 27.6682 89.8861 27.9698 90.1027 28.1956C90.3193 28.4213 90.6158 28.5531 90.9285 28.5627C91.0812 28.5744 91.2347 28.5556 91.3801 28.5071C91.5254 28.4587 91.6595 28.3817 91.7746 28.2806C91.8898 28.1796 91.9835 28.0565 92.0503 27.9187C92.1172 27.7809 92.1558 27.6311 92.1639 27.4781C92.165 27.1651 92.0442 26.864 91.8271 26.6385C91.61 26.413 91.3136 26.2809 91.0008 26.2702C90.8482 26.2584 90.6949 26.2773 90.5498 26.3258C90.4047 26.3743 90.2708 26.4515 90.1561 26.5527C90.0413 26.6538 89.948 26.777 89.8817 26.9149C89.8154 27.0528 89.7774 27.2025 89.77 27.3553Z" fill="#263238"/>
<path d="M88.9429 27.2261C89.0919 27.3811 90.0026 26.7098 91.2923 26.7056C92.582 26.7015 93.5302 27.3523 93.6725 27.1923C93.7379 27.121 93.5863 26.8391 93.1741 26.5427C92.6156 26.1551 91.9498 25.9521 91.27 25.9621C90.5987 25.9596 89.9442 26.1717 89.402 26.5675C89.0079 26.8641 88.8733 27.1469 88.9429 27.2261Z" fill="#263238"/>
<path d="M89.8791 23.7877C90.1045 24.0415 91.1419 23.4801 92.4453 23.5152C93.7487 23.5503 94.7611 24.139 94.9936 23.8968C95.1024 23.7794 94.9741 23.4255 94.5385 23.0558C93.95 22.5847 93.2227 22.3204 92.4691 22.3038C91.7154 22.2873 90.9773 22.5193 90.3686 22.9642C89.9201 23.3194 89.7773 23.6669 89.8791 23.7877Z" fill="#263238"/>
<path d="M77.5368 24.3639C77.4621 24.5091 77.6511 24.791 78.087 25.0483C78.6691 25.3614 79.3232 25.516 79.9839 25.4967C80.6446 25.4774 81.2885 25.2847 81.8513 24.9381C82.2719 24.6543 82.44 24.3663 82.3596 24.2248C82.1711 23.9383 81.1684 24.265 79.9474 24.2825C78.7263 24.3001 77.7078 24.0529 77.5368 24.3639Z" fill="#263238"/>
<path d="M83.0363 39.9496L86.7731 38.2909C87.0939 38.7752 87.3479 39.3005 87.5282 39.8527C87.6135 40.1296 87.6403 40.4211 87.607 40.7089C87.5736 40.9966 87.4809 41.2743 87.3346 41.5243C86.9915 41.9629 86.5199 42.2833 85.9857 42.4408C85.5459 42.6496 85.0528 42.7194 84.5723 42.6408C84.307 42.5597 84.0632 42.4202 83.8588 42.2326C83.6545 42.045 83.4947 41.814 83.3912 41.5566C83.1905 41.0422 83.0686 40.5004 83.0298 39.9496" fill="#EB996E"/>
<path d="M84.5724 42.6344C84.5724 42.6344 84.7079 42.7247 84.9854 42.7376C85.3797 42.7351 85.7699 42.6562 86.1342 42.5053C86.7131 42.3361 87.2122 41.9652 87.5412 41.4597C87.7019 41.1255 87.7854 40.7593 87.7854 40.3884C87.7854 40.0175 87.7019 39.6513 87.5412 39.317C87.368 38.9298 87.1651 38.5565 86.9345 38.2005L86.857 38.0779L86.7344 38.136C85.6631 38.62 84.7337 39.0589 84.0819 39.3816C83.7192 39.524 83.3764 39.7127 83.0621 39.9431C83.4445 39.8626 83.8152 39.7347 84.1658 39.5623C84.8434 39.2912 85.7857 38.9169 86.8635 38.4264L86.6634 38.3619C86.8778 38.7084 87.0697 39.0684 87.2378 39.4397C87.3844 39.7292 87.4661 40.0472 87.4773 40.3716C87.4884 40.6959 87.4287 41.0188 87.3024 41.3178C87.016 41.7709 86.5833 42.1125 86.0761 42.2858C85.7403 42.4487 85.3809 42.5576 85.0112 42.6085C84.7273 42.6408 84.5788 42.6085 84.5724 42.6344Z" fill="#263238"/>
<path d="M104.011 37.5315C104.009 37.6441 104.035 37.7555 104.087 37.8553C104.215 38.1393 104.422 38.3805 104.683 38.5501C104.875 38.6823 105.093 38.7729 105.323 38.8159C105.552 38.8589 105.788 38.8534 106.015 38.7999C106.296 38.7363 106.559 38.611 106.785 38.4331C107.011 38.2552 107.195 38.0292 107.323 37.7715C107.46 37.466 107.523 37.1327 107.507 36.7984C107.491 36.4642 107.397 36.1383 107.232 35.8471C107.067 35.556 106.836 35.3077 106.557 35.1223C106.279 34.9369 105.96 34.8196 105.628 34.7799C105.518 34.7552 105.403 34.7583 105.294 34.7889C105.682 34.8705 106.053 35.0161 106.392 35.2197C106.744 35.4536 107.013 35.7932 107.159 36.1895C107.248 36.4266 107.289 36.679 107.28 36.9321C107.271 37.1852 107.213 37.434 107.107 37.6642C106.993 37.89 106.832 38.0888 106.635 38.2472C106.437 38.4055 106.208 38.5198 105.963 38.5823C105.763 38.6349 105.554 38.6465 105.349 38.6163C105.145 38.5862 104.948 38.5149 104.771 38.4067C104.442 38.1907 104.179 37.8878 104.011 37.5315Z" fill="#455A64"/>
<path d="M66.8884 135.92C66.8884 136.894 70.7608 267.677 70.7608 267.677L89.7224 268.393L94.6403 150.499C94.6403 150.499 99.4421 211.018 99.4421 212.321C99.4421 213.625 104.838 268.851 104.838 268.851L122.547 268.064L121.256 143.503L118.952 125.639L68.6568 126.149L66.8884 135.92Z" fill="#263238"/>
<path d="M96.7444 146.22C96.4844 146.368 96.2069 146.483 95.9183 146.562C95.3826 146.762 94.6275 147.033 93.6271 147.363L93.44 147.427V147.234C93.3238 145.607 93.2012 143.426 93.0786 141.044C92.9495 138.463 92.8527 136.113 92.8075 134.416C92.8075 133.571 92.7688 132.886 92.7688 132.409C92.7444 132.163 92.7596 131.914 92.8139 131.673C92.8845 131.91 92.9235 132.155 92.9301 132.402C92.9753 132.874 93.0334 133.558 93.0915 134.403C93.2141 136.1 93.3496 138.437 93.4787 141.025C93.6013 143.413 93.6917 145.588 93.7369 147.221L93.5432 147.092C94.5242 146.795 95.3245 146.562 95.8796 146.414C96.1576 146.31 96.4486 146.245 96.7444 146.22Z" fill="#455A64"/>
<path d="M95.2017 132.144C95.2017 132.144 95.2663 132.041 95.4728 131.97C95.7707 131.88 96.0917 131.908 96.3699 132.047C96.578 132.144 96.7515 132.303 96.8669 132.501C96.9823 132.7 97.0341 132.929 97.0153 133.157C96.988 133.447 96.8685 133.719 96.6744 133.936C96.4804 134.152 96.222 134.3 95.9375 134.358C95.6489 134.404 95.3532 134.364 95.087 134.244C94.8208 134.124 94.5959 133.927 94.4402 133.68C94.3172 133.487 94.2519 133.264 94.2519 133.035C94.2519 132.806 94.3172 132.582 94.4402 132.389C94.5876 132.136 94.8144 131.939 95.0856 131.828C95.2856 131.757 95.4082 131.763 95.4082 131.789C95.4082 131.815 94.95 131.944 94.666 132.512C94.5857 132.665 94.5481 132.837 94.5571 133.01C94.5662 133.182 94.6217 133.349 94.7177 133.493C94.8372 133.668 95.0033 133.806 95.1972 133.892C95.3911 133.977 95.605 134.007 95.8149 133.977C96.0184 133.931 96.2032 133.824 96.3449 133.671C96.4867 133.518 96.5786 133.325 96.6087 133.119C96.627 132.95 96.5944 132.78 96.515 132.631C96.4356 132.481 96.3131 132.359 96.1634 132.28C95.8647 132.136 95.5286 132.088 95.2017 132.144Z" fill="#455A64"/>
<path d="M104.528 133.532C104.418 133.532 104.263 132.958 104.186 132.241C104.108 131.525 104.134 130.905 104.244 130.892C104.354 130.879 104.508 131.473 104.586 132.183C104.663 132.893 104.644 133.525 104.528 133.532Z" fill="#455A64"/>
<path d="M105.941 133.396C105.831 133.396 105.735 132.751 105.735 132.002C105.735 131.254 105.812 130.608 105.928 130.608C106.044 130.608 106.128 131.254 106.135 132.002C106.141 132.751 106.051 133.396 105.941 133.396Z" fill="#455A64"/>
<path d="M81.4421 134.332C81.1885 133.849 81.0577 133.31 81.0613 132.764C80.9306 132.234 80.9306 131.68 81.0613 131.15C81.3151 131.634 81.448 132.172 81.4485 132.719C81.5753 133.249 81.5731 133.803 81.4421 134.332Z" fill="#455A64"/>
<path d="M83.1524 134.468C83.0491 134.506 82.6942 133.79 82.6554 132.822C82.6167 131.854 82.9071 131.112 83.0104 131.144C83.0777 131.696 83.0928 132.254 83.0556 132.809C83.1417 133.357 83.1741 133.913 83.1524 134.468Z" fill="#455A64"/>
<path d="M76.7241 132.654C76.7341 132.855 76.7101 133.055 76.6531 133.248C76.5587 133.787 76.4228 134.318 76.2465 134.836C75.6762 136.569 74.826 138.198 73.7295 139.657C72.6185 141.148 71.2789 142.455 69.7603 143.529C69.2987 143.858 68.8158 144.155 68.3147 144.42C68.1369 144.529 67.9461 144.616 67.7467 144.678C67.7144 144.62 68.4825 144.187 69.6054 143.342C71.0521 142.232 72.3399 140.929 73.4326 139.47C74.5115 138.034 75.3807 136.452 76.0142 134.771C76.4789 133.474 76.6596 132.641 76.7241 132.654Z" fill="#455A64"/>
<path d="M120.663 141.773C120.465 141.839 120.258 141.871 120.049 141.87C119.482 141.909 118.912 141.898 118.346 141.838C116.477 141.64 114.688 140.974 113.144 139.902C111.638 138.846 110.44 137.409 109.672 135.739C109.445 135.246 109.268 134.731 109.142 134.203C109.074 134.015 109.046 133.815 109.058 133.616C109.123 133.616 109.291 134.429 109.904 135.636C110.714 137.228 111.899 138.599 113.357 139.631C114.861 140.651 116.578 141.313 118.378 141.567C119.778 141.799 120.663 141.709 120.663 141.773Z" fill="#455A64"/>
<path d="M102.85 53.2773C102.85 53.2773 97.4478 59.1827 83.3137 54.4713L74.3814 67.547L65.475 139.708L95.3567 143.129L118.752 139.825L111.279 67.5405L102.85 53.2773Z" fill="#E0E0E0"/>
<path d="M66.9788 59.2471C66.9788 59.2471 61.8156 60.1248 58.8984 66.0947C55.9813 72.0646 53.9806 96.2733 53.9806 96.2733L39.0526 85.1919L31.3918 88.1026C31.3918 88.1026 43.8156 114.88 52.0444 116.835C58.8533 118.449 62.674 119.198 66.3592 113.408C70.0444 107.619 72.7163 66.0947 72.7163 66.0947L66.9788 59.2471Z" fill="#455A64"/>
<path d="M61.0025 155.766C61.0025 155.766 64.8749 115.958 64.6684 115.48C64.4618 115.003 65.0879 92.1817 64.6684 91.8267C64.2489 91.4717 66.9789 59.2666 66.9789 59.2666L81.1775 54.8844H80.9904L84.2173 51.4509C84.2173 51.4509 88.18 64.6105 88.1284 64.8235C86.9796 69.3412 82.8685 136.727 82.8685 136.727C82.8685 137.204 81.2485 155.74 81.2485 155.74L61.0025 155.766Z" fill="#455A64"/>
<path d="M65.2943 93.8918C65.4443 94.0307 65.6062 94.1559 65.7784 94.2661L67.2111 95.273H67.2434H67.2886L74.8203 91.6265L74.9042 91.5878V91.5039C75.0849 89.0578 75.2914 86.2826 75.5173 83.3525C75.7109 80.6032 75.8981 77.9893 76.0659 75.6466V75.511H75.9368C73.278 74.9615 70.533 74.9813 67.8823 75.5691C67.1305 75.733 66.3908 75.9486 65.6686 76.2145C65.4061 76.2974 65.153 76.4077 64.9135 76.5437C65.1783 76.4821 65.4391 76.4045 65.6945 76.3113C66.426 76.0894 67.1694 75.9084 67.9211 75.7692C70.5485 75.2519 73.2536 75.2739 75.8723 75.8337L75.7497 75.6724C75.5754 78.0151 75.3753 80.6225 75.1688 83.3719C74.9623 86.302 74.7622 89.0772 74.588 91.5232L74.6719 91.4006L67.2047 95.1761H67.2886L65.8106 94.2339C65.6523 94.1004 65.479 93.9856 65.2943 93.8918Z" fill="#263238"/>
<path d="M65.0683 70.6836C65.0039 71.0002 64.9693 71.3222 64.9651 71.6452C64.9199 72.2906 64.8747 73.1748 64.836 74.2849C64.7586 76.5179 64.7392 79.6029 64.7586 83.0041C64.7779 86.4054 64.7908 89.4903 64.7586 91.7169C64.7586 92.7818 64.7586 93.6531 64.7586 94.3566C64.7394 94.6818 64.7502 95.008 64.7908 95.3311C64.8557 95.0124 64.8902 94.6883 64.8941 94.3631C64.9393 93.7177 64.9844 92.8399 65.0232 91.7234C65.1006 89.4903 65.12 86.4054 65.1006 83.0041C65.0813 79.6029 65.0684 76.5502 65.1006 74.2913C65.1006 73.2264 65.1006 72.3552 65.1006 71.6517C65.1202 71.3287 65.1094 71.0046 65.0683 70.6836Z" fill="#263238"/>
<path d="M80.9774 54.8909C80.9608 55.1864 80.976 55.4828 81.0225 55.7751C81.0742 56.343 81.1581 57.1627 81.2678 58.1759C81.5001 60.196 81.8486 62.9841 82.3327 66.0497C82.5005 67.1533 82.6812 68.2182 82.8619 69.2057L82.9458 69.6768L83.1652 69.2509C83.6535 68.2999 84.192 67.3757 84.7787 66.4821C85.0433 66.0755 85.3015 65.7012 85.5467 65.3527C85.7555 65.0334 86.005 64.7427 86.2889 64.4879C86.5087 64.2865 86.7977 64.1778 87.0957 64.1845C87.3194 64.2067 87.5289 64.3046 87.6895 64.462C87.822 64.6013 87.896 64.7861 87.896 64.9784C87.896 64.9784 88.0444 64.7331 87.7733 64.3846C87.6062 64.1946 87.3779 64.069 87.1279 64.0296C86.957 64.0131 86.7845 64.0308 86.6204 64.0818C86.4564 64.1328 86.3042 64.216 86.1728 64.3265C85.8618 64.5819 85.5881 64.8795 85.3596 65.2107C85.1014 65.5528 84.8304 65.9206 84.5593 66.3272C83.951 67.2193 83.395 68.1459 82.8942 69.1024L83.1975 69.1476L82.6812 65.9981C82.1972 62.9325 81.8164 60.1508 81.5195 58.1436C81.3775 57.1885 81.2613 56.3882 81.1645 55.7622C81.132 55.4661 81.0693 55.1741 80.9774 54.8909Z" fill="#263238"/>
<g opacity="0.3">
<path d="M83.1266 68.9732C83.359 69.9284 83.5848 70.9094 83.8107 71.8388C84.4949 69.9327 85.1768 68.0266 85.8566 66.1206C85.9723 65.7401 86.1442 65.379 86.3665 65.0492C86.7494 64.6818 87.2451 64.4543 87.7734 64.4038C87.5061 64.1882 87.1686 64.0787 86.8256 64.0966C86.4825 64.1145 86.1582 64.2584 85.9147 64.5006C85.0886 65.3719 83.1266 68.9732 83.1266 68.9732Z" fill="black"/>
</g>
<g opacity="0.3">
<path d="M64.7715 94.1047C62.9967 87.7347 63.3645 79.7577 65.0684 73.3618L64.7715 94.1047Z" fill="black"/>
</g>
<path d="M65.0362 79.364C65.5592 79.3523 66.0799 79.2918 66.5916 79.1833C67.5403 79.0477 68.8569 78.8928 70.322 78.8089C71.787 78.725 73.1101 78.7379 74.0717 78.7638C74.5911 78.8143 75.1142 78.8143 75.6335 78.7638C75.1293 78.6185 74.6091 78.5361 74.0846 78.5185C71.5667 78.3091 69.0319 78.4502 66.5529 78.938C66.0313 79.0152 65.5217 79.1583 65.0362 79.364Z" fill="#263238"/>
<path d="M64.4167 125.929C64.6434 125.858 64.8602 125.758 65.0621 125.632C65.4687 125.426 66.043 125.103 66.7401 124.697C68.5638 123.616 70.3303 122.442 72.0323 121.179C73.7349 119.919 75.37 118.571 76.9308 117.139C77.531 116.59 78.0022 116.132 78.3184 115.809C78.4944 115.651 78.6524 115.473 78.7896 115.28C78.5834 115.398 78.3945 115.543 78.2281 115.713L76.7759 116.965C75.5432 118.01 73.8136 119.437 71.8258 120.908C69.8379 122.38 67.9534 123.619 66.6174 124.49L64.9975 125.523C64.7866 125.632 64.5912 125.768 64.4167 125.929Z" fill="#263238"/>
<path opacity="0.3" d="M120.456 114.015L121.302 120.405C121.302 120.405 91.2004 126.968 88.1219 126.775C85.0434 126.581 83.0814 123.548 83.0814 123.548L82.5909 120.114C82.5909 120.114 64.5199 121.134 63.7389 119.004L92.0975 114.854L100.449 116.397L120.456 114.015Z" fill="black"/>
<path d="M84.6883 58.6147C82.7928 53.2825 79.5012 48.5567 75.1569 44.9302C70.8125 41.3036 65.5747 38.9093 59.9896 37.9969C54.4046 37.0845 48.6771 37.6875 43.4045 39.7429C38.1319 41.7984 33.5075 45.231 30.0136 49.6827C26.5197 54.1345 24.2844 59.4422 23.5408 65.0522C22.7973 70.6622 23.5727 76.3689 25.7862 81.5771C27.9997 86.7853 31.5703 91.3041 36.1253 94.6622C40.6804 98.0202 46.0531 100.094 51.683 100.669L54.3484 108.2L80.4998 98.9711C80.4998 98.9711 79.1638 94.6857 77.9182 90.8973C81.9079 86.6602 84.651 81.4044 85.8455 75.7086C87.04 70.0127 86.6396 64.0976 84.6883 58.6147Z" fill="#3E4095"/>
<path d="M76.5693 100.32C76.5693 100.32 76.5048 100.204 76.3886 99.9715L75.8852 98.9259C75.4464 98.0095 74.8074 96.6477 74.0071 94.8858C72.4195 91.3555 70.1993 86.2052 67.8243 79.6997C67.2305 78.0797 66.6238 76.3695 66.0236 74.5753C65.7203 73.6782 65.417 72.7682 65.1136 71.8323C64.7491 70.8902 64.5314 69.8976 64.4682 68.8894C64.4566 68.3593 64.574 67.8344 64.8103 67.3598C64.9238 67.1094 65.087 66.8848 65.29 66.6995C65.4931 66.5142 65.7317 66.3721 65.9913 66.282C66.2627 66.2133 66.5458 66.2042 66.821 66.2555C67.0962 66.3067 67.357 66.4171 67.5855 66.5788C68.0542 66.8993 68.4215 67.3472 68.6439 67.8696C68.8441 68.3942 68.922 68.9575 68.8716 69.5167C68.8213 70.0759 68.6441 70.6162 68.3535 71.0966C67.7747 72.1008 66.8971 72.8995 65.8429 73.3813C64.7647 73.8789 63.5642 74.0494 62.3901 73.8718C61.1882 73.6713 60.0686 73.1317 59.1631 72.3164C58.2401 71.4982 57.5292 70.4685 57.0914 69.3153C56.8615 68.7301 56.7306 68.1106 56.7041 67.4824C56.6544 66.8306 56.8501 66.1838 57.2527 65.6688C57.4755 65.416 57.7707 65.238 58.0982 65.159C58.4206 65.0814 58.7568 65.0814 59.0792 65.159C59.7203 65.3113 60.2939 65.6694 60.712 66.1787C61.1272 66.6792 61.4664 67.2381 61.7188 67.8374C61.9754 68.4278 62.2015 69.031 62.3965 69.6445C62.8188 70.8933 63.0495 72.1989 63.0806 73.5168C63.1306 74.8568 62.8066 76.1842 62.1448 77.3505C61.8063 77.9312 61.3695 78.4487 60.854 78.88C60.333 79.3067 59.7216 79.6091 59.0663 79.7642C58.4091 79.8971 57.7297 79.8705 57.0849 79.6868C56.4494 79.5019 55.854 79.1998 55.3295 78.7961C54.3204 77.9935 53.4486 77.0323 52.7479 75.95C52.3865 75.4272 52.0509 74.8915 51.7282 74.3494C51.3908 73.8135 51.0993 73.25 50.8569 72.6649C50.6083 72.069 50.5497 71.4108 50.6891 70.7804C50.7625 70.4605 50.9132 70.1636 51.1279 69.9155C51.3539 69.6653 51.664 69.5068 51.9992 69.4702C52.3256 69.4391 52.6539 69.5065 52.9415 69.6638C53.2186 69.8115 53.473 69.9984 53.6966 70.2189C54.1299 70.6537 54.4973 71.1494 54.7873 71.6904C56.027 73.7332 56.543 76.1339 56.2524 78.5057C56.0641 79.6432 55.5888 80.714 54.8712 81.6165C54.1817 82.514 53.2115 83.1547 52.1154 83.4365C51.0363 83.6762 49.9065 83.4987 48.953 82.9396C48.0186 82.4361 47.27 81.6468 46.8167 80.6871C46.5926 80.2198 46.4611 79.7136 46.4295 79.1963C46.3829 78.6775 46.5149 78.1583 46.8038 77.7248C46.9615 77.5107 47.1872 77.3565 47.444 77.2873C47.7007 77.2181 47.9733 77.2381 48.2172 77.344C48.6634 77.5588 49.0443 77.8884 49.3209 78.2992C49.8314 79.081 50.2453 79.9219 50.5536 80.8033L51.5604 83.2623C54.1936 89.6646 56.2265 94.8793 57.5625 98.5129C58.2079 100.326 58.7307 101.74 59.0598 102.714L59.4277 103.812L59.5439 104.192C59.5439 104.192 59.4922 104.063 59.4019 103.818L59.0146 102.727C58.6726 101.772 58.1627 100.352 57.4786 98.5452C56.1168 94.9245 54.0645 89.7162 51.4119 83.3203C51.0828 82.5201 50.7665 81.7069 50.3922 80.8678C50.0903 80.0015 49.6827 79.1756 49.1789 78.4089C48.9216 78.0225 48.5648 77.7125 48.1462 77.5118C47.9402 77.4216 47.7096 77.4044 47.4925 77.4631C47.2754 77.5217 47.0848 77.6528 46.9523 77.8345C46.6874 78.234 46.5689 78.7129 46.6167 79.1898C46.6488 79.6807 46.7759 80.1608 46.991 80.6032C47.4275 81.5278 48.1491 82.2879 49.0498 82.7718C49.9619 83.3019 51.04 83.47 52.0702 83.2429C53.1212 82.9683 54.0503 82.3504 54.7099 81.4874C55.404 80.6133 55.8619 79.5754 56.0394 78.4734C56.3381 76.1449 55.8399 73.7837 54.626 71.7743C54.345 71.2531 53.9908 70.7749 53.574 70.3544C53.3844 70.1369 53.1503 69.9627 52.8875 69.8435C52.6247 69.7244 52.3394 69.6631 52.0509 69.6638C51.7686 69.7148 51.509 69.852 51.3079 70.0566C51.1068 70.2612 50.974 70.523 50.9279 70.8062C50.7996 71.3945 50.8583 72.0082 51.0957 72.5616C51.3332 73.1331 51.6181 73.6836 51.9476 74.2074C52.2638 74.7431 52.593 75.2787 52.9609 75.7951C53.6502 76.8572 54.5067 77.8009 55.4973 78.5896C56.0004 78.9729 56.569 79.2615 57.1753 79.4415C57.7837 79.6196 58.4268 79.644 59.0469 79.5125C59.6678 79.3475 60.2487 79.0581 60.7546 78.6621C61.2604 78.2661 61.6807 77.7716 61.9899 77.2085C62.634 76.081 62.9472 74.7948 62.8935 73.4975C62.867 72.2118 62.6495 70.9372 62.2481 69.7155C61.9151 68.4986 61.3593 67.3541 60.6088 66.3401C60.2228 65.8657 59.6926 65.5303 59.0986 65.3849C58.8151 65.3051 58.5153 65.3038 58.2311 65.3811C57.9469 65.4584 57.6891 65.6114 57.4851 65.8237C57.1195 66.2956 56.9444 66.8876 56.9946 67.4824C57.0159 68.0843 57.1403 68.678 57.3624 69.2379C57.787 70.3576 58.4756 71.3583 59.3696 72.155C60.2376 72.9428 61.3123 73.4667 62.4675 73.6653C63.5997 73.8424 64.7591 73.6784 65.7977 73.1941C66.8142 72.734 67.6607 71.9665 68.218 70.9998C68.4991 70.5432 68.6715 70.0282 68.7218 69.4944C68.7722 68.9606 68.6991 68.4223 68.5084 67.9213C68.2959 67.4449 67.9537 67.0379 67.5209 66.7467C67.3184 66.5981 67.0854 66.4962 66.8388 66.4482C66.5922 66.4002 66.3381 66.4074 66.0946 66.4691C65.8602 66.5523 65.6448 66.6813 65.4609 66.8486C65.2769 67.0159 65.1281 67.2182 65.0233 67.4437C64.8031 67.8931 64.6946 68.389 64.707 68.8894C64.7685 69.879 64.9863 70.8527 65.3524 71.7743C65.6557 72.7101 65.9591 73.6265 66.2495 74.5236C66.8519 76.3092 67.4499 78.0174 68.0437 79.6481C70.3929 86.1536 72.5614 91.3103 74.1491 94.8471C74.9365 96.6154 75.5625 97.9837 75.9885 98.9066C76.2015 99.3648 76.3628 99.7198 76.479 99.9586L76.5693 100.32Z" fill="white"/>
<path d="M69.1926 128.659C70.0643 128.876 70.9008 129.215 71.6774 129.666C71.9446 129.832 72.2462 129.936 72.5593 129.968C72.8725 130.001 73.1889 129.961 73.4845 129.853L79.293 127.781C79.615 127.668 79.9045 127.477 80.1362 127.227C80.3679 126.976 80.5348 126.672 80.6225 126.342C80.8169 125.44 81.3273 124.636 82.0618 124.077L69.1926 128.659Z" fill="#263238"/>
<path d="M57.0979 114.622C57.1431 114.738 61.7319 123.38 63.4873 126.684C63.8347 127.358 64.3448 127.935 64.9714 128.362C65.598 128.789 66.3213 129.053 67.0757 129.13C67.681 129.188 68.2916 129.111 68.8635 128.904L81.6358 124.387C81.6358 124.387 84.9789 123.206 84.7917 120.288C84.6046 117.216 82.2102 105.722 82.2102 105.722L57.0979 114.622Z" fill="#E0E0E0"/>
<path d="M85.5615 117.822L85.5876 117.895C85.7128 118.244 85.5313 118.629 85.1824 118.754L62.9538 126.726C62.6049 126.851 62.2206 126.67 62.0954 126.321L62.0693 126.248C61.9441 125.899 62.1256 125.514 62.4745 125.389L84.7031 117.417C85.052 117.292 85.4363 117.473 85.5615 117.822Z" fill="#E0E0E0"/>
<path d="M85.1723 118.765C85.3278 118.689 85.4546 118.564 85.5338 118.41C85.5766 118.317 85.5988 118.216 85.5988 118.114C85.5988 118.011 85.5766 117.91 85.5338 117.817C85.4792 117.694 85.3877 117.591 85.272 117.523C85.1563 117.455 85.0222 117.424 84.8884 117.436C83.6751 117.849 81.8938 118.533 79.7253 119.32L62.5707 125.51C62.4825 125.539 62.4033 125.591 62.3411 125.66C62.2789 125.729 62.2357 125.813 62.2157 125.903C62.1931 125.992 62.1931 126.086 62.2157 126.174C62.24 126.266 62.2793 126.354 62.3319 126.433C62.3865 126.507 62.4587 126.567 62.5421 126.606C62.6255 126.646 62.7174 126.664 62.8095 126.659C63.0097 126.614 63.206 126.553 63.3968 126.478L65.8041 125.613L70.3671 123.98L78.1118 121.237L83.3265 119.404L84.7528 118.92L85.1207 118.798L85.2498 118.765L85.1272 118.817L84.7658 118.959L83.3588 119.488L78.1957 121.424L70.4832 124.213L65.9268 125.852L63.5194 126.723L63.2096 126.833C63.0984 126.88 62.9811 126.91 62.8611 126.923C62.7364 126.924 62.613 126.896 62.5009 126.842C62.3889 126.787 62.2912 126.706 62.2157 126.607C62.142 126.504 62.0893 126.388 62.0608 126.265C62.0319 126.14 62.0319 126.009 62.0608 125.884C62.0911 125.756 62.153 125.637 62.241 125.539C62.3289 125.441 62.4401 125.367 62.5642 125.323L79.7382 119.198C81.9454 118.43 83.7073 117.778 84.9723 117.384C85.1252 117.367 85.2798 117.4 85.4117 117.479C85.5436 117.559 85.6456 117.68 85.7016 117.823C85.7506 117.924 85.7761 118.034 85.7761 118.146C85.7761 118.258 85.7506 118.368 85.7016 118.469C85.6445 118.558 85.5663 118.631 85.474 118.683C85.3817 118.735 85.2781 118.763 85.1723 118.765Z" fill="#263238"/>
<path d="M85.0126 114.774L85.0388 114.847C85.1639 115.196 84.9825 115.58 84.6336 115.706L61.4634 124.015C61.1144 124.141 60.7301 123.959 60.605 123.61L60.5788 123.537C60.4537 123.188 60.6351 122.804 60.984 122.679L84.1542 114.369C84.5032 114.244 84.8875 114.425 85.0126 114.774Z" fill="#E0E0E0"/>
<path d="M84.6238 115.751C84.7897 115.681 84.9217 115.549 84.9916 115.383C85.0296 115.284 85.0453 115.178 85.0375 115.072C85.0297 114.966 84.9986 114.863 84.9465 114.77C84.8802 114.644 84.774 114.543 84.6444 114.484C84.5148 114.424 84.3691 114.409 84.2301 114.441L78.841 116.409L61.0218 122.863C60.9315 122.896 60.851 122.951 60.7878 123.023C60.7246 123.096 60.6808 123.183 60.6603 123.276C60.6345 123.369 60.6345 123.468 60.6603 123.56C60.6856 123.658 60.7318 123.748 60.7959 123.825C60.8588 123.896 60.9385 123.949 61.0276 123.981C61.1167 124.012 61.2124 124.021 61.3057 124.006C61.48 123.961 61.7188 123.864 61.9511 123.793L64.4488 122.851L69.186 121.16L77.2147 118.294L82.6295 116.397L84.1075 115.887L84.4947 115.764L84.6238 115.725C84.6238 115.725 84.5851 115.725 84.5012 115.783L84.1204 115.932L82.6618 116.48L77.2663 118.455L69.257 121.353L64.5262 123.057L62.0221 123.954C61.811 124.04 61.5956 124.116 61.3767 124.18C61.2452 124.2 61.1107 124.188 60.9856 124.142C60.8604 124.097 60.7486 124.021 60.6603 123.922C60.5766 123.822 60.515 123.705 60.4796 123.58C60.4474 123.448 60.4474 123.311 60.4796 123.18C60.5063 123.047 60.5674 122.923 60.6569 122.821C60.7464 122.719 60.8611 122.643 60.9895 122.599L78.8346 116.229C81.1193 115.422 82.9651 114.77 84.2559 114.331C84.4118 114.295 84.5754 114.313 84.7198 114.382C84.8641 114.451 84.9805 114.568 85.0497 114.712C85.1021 114.811 85.1321 114.92 85.1377 115.031C85.1433 115.143 85.1243 115.254 85.082 115.358C85.0478 115.458 84.9873 115.548 84.9067 115.617C84.8261 115.686 84.7284 115.733 84.6238 115.751Z" fill="#263238"/>
<path d="M84.2936 111.794L84.3198 111.866C84.4449 112.215 84.2635 112.6 83.9146 112.725L60.149 121.248C59.8001 121.373 59.4158 121.192 59.2906 120.843L59.2645 120.77C59.1393 120.421 59.3208 120.037 59.6697 119.912L83.4353 111.388C83.7842 111.263 84.1685 111.445 84.2936 111.794Z" fill="#E0E0E0"/>
<path d="M83.9075 112.744C84.0715 112.662 84.2017 112.525 84.2754 112.357C84.3177 112.252 84.3344 112.139 84.3243 112.027C84.3142 111.915 84.2775 111.806 84.2173 111.711C84.1437 111.585 84.0296 111.488 83.8937 111.435C83.7577 111.383 83.6079 111.378 83.4687 111.421L77.9506 113.441L59.6989 120.017C59.6072 120.053 59.5261 120.112 59.4629 120.187C59.3997 120.263 59.3566 120.353 59.3374 120.45C59.3249 120.548 59.334 120.649 59.3641 120.743C59.3942 120.838 59.4446 120.925 59.5117 120.998C59.5785 121.069 59.6623 121.121 59.7551 121.149C59.8478 121.177 59.9463 121.181 60.0409 121.16C60.241 121.095 60.4734 121.005 60.6863 120.927L63.2679 120.011L68.1019 118.333L76.3177 115.409L81.8617 113.473L83.3719 112.95L83.772 112.821H83.9075L83.7785 112.879L83.3912 113.028L81.8939 113.589L76.3694 115.609L68.1729 118.572L63.326 120.321L60.7444 121.244C60.5185 121.321 60.3249 121.399 60.099 121.476C59.9649 121.507 59.8251 121.503 59.6929 121.465C59.5607 121.426 59.4406 121.355 59.3439 121.257C59.2567 121.157 59.1908 121.041 59.1503 120.915C59.1054 120.784 59.0921 120.645 59.1116 120.508C59.136 120.371 59.1959 120.243 59.2854 120.136C59.3748 120.03 59.4907 119.949 59.6214 119.901L77.8602 113.305L83.4106 111.369C83.5676 111.324 83.7354 111.333 83.8866 111.395C84.0378 111.457 84.1635 111.568 84.2432 111.711C84.3017 111.813 84.3362 111.927 84.344 112.045C84.3518 112.162 84.3328 112.28 84.2883 112.389C84.253 112.471 84.2009 112.545 84.1353 112.606C84.0698 112.668 83.9922 112.714 83.9075 112.744Z" fill="#263238"/>
<path d="M83.7573 108.75L83.7834 108.823C83.9086 109.172 83.7271 109.556 83.3782 109.681L58.6467 118.551C58.2978 118.676 57.9134 118.495 57.7883 118.146L57.7622 118.073C57.637 117.724 57.8184 117.34 58.1674 117.214L82.8989 108.345C83.2478 108.22 83.6321 108.401 83.7573 108.75Z" fill="#E0E0E0"/>
<path d="M83.3718 109.697C83.5427 109.616 83.6764 109.473 83.7461 109.297C83.7822 109.19 83.7928 109.076 83.7771 108.964C83.7614 108.852 83.7199 108.745 83.6558 108.652C83.5714 108.525 83.4447 108.432 83.2982 108.389C83.1517 108.347 82.9948 108.357 82.8555 108.42L77.1309 110.517L58.2015 117.339C58.1055 117.375 58.0207 117.435 57.956 117.515C57.8914 117.594 57.8491 117.689 57.8336 117.791C57.8242 117.894 57.8379 117.998 57.8736 118.095C57.9093 118.192 57.9662 118.28 58.0402 118.352C58.117 118.419 58.2101 118.463 58.31 118.481C58.4099 118.499 58.5129 118.491 58.6081 118.455L59.2858 118.217L61.9448 117.261L66.9724 115.461L75.498 112.434L81.2485 110.407L82.8168 109.865L83.2298 109.736C83.2744 109.715 83.3225 109.702 83.3718 109.697L83.2363 109.756L82.8361 109.91L81.2807 110.491L75.5497 112.582L67.0434 115.661L62.0222 117.474L59.3632 118.43L58.7178 118.675C58.6174 118.709 58.5112 118.724 58.4052 118.717C58.2992 118.71 58.1955 118.683 58.1002 118.636C58.0049 118.589 57.9197 118.524 57.8496 118.445C57.7795 118.365 57.7258 118.272 57.6916 118.171C57.6413 118.04 57.6236 117.898 57.64 117.758C57.6585 117.614 57.7165 117.477 57.8076 117.363C57.8986 117.249 58.0193 117.163 58.1563 117.113L77.1051 110.349L82.8555 108.323C83.0128 108.256 83.1886 108.248 83.3516 108.299C83.5146 108.349 83.6544 108.456 83.7461 108.6C83.812 108.703 83.8533 108.819 83.8668 108.94C83.8802 109.061 83.8654 109.183 83.8236 109.297C83.7698 109.437 83.6695 109.553 83.5396 109.626C83.4903 109.663 83.4327 109.688 83.3718 109.697Z" fill="#263238"/>
<path d="M49.6436 104.973C49.7275 105.206 52.2252 110.607 53.516 113.363C53.7512 113.864 54.0961 114.306 54.5251 114.656C54.9541 115.005 55.4562 115.254 55.9943 115.383L57.5949 115.764L82.294 107L83.2815 105.709C83.6238 105.265 83.8599 104.749 83.9718 104.199C84.0837 103.65 84.0683 103.082 83.9269 102.54L81.5906 93.6143L49.6436 104.973Z" fill="#3E4095"/>
<g opacity="0.3">
<path d="M63.7583 126.387C66.3488 125.997 68.8865 125.313 71.3223 124.348C73.4263 123.586 75.5109 122.915 77.7762 122.05C79.4413 121.405 80.958 120.792 82.6038 120.114C83.2761 119.88 83.8887 119.501 84.3979 119.004L63.7583 126.387Z" fill="black"/>
</g>
<g opacity="0.3">
<path d="M61.8544 123.812C64.6396 123.353 67.3679 122.598 69.9928 121.56C72.2581 120.74 74.5105 120.011 76.963 119.088C78.7572 118.41 80.3901 117.733 82.1649 117.023C82.8819 116.77 83.5405 116.375 84.1011 115.861L61.8544 123.812Z" fill="black"/>
</g>
<g opacity="0.3">
<path d="M60.8411 120.96C63.6259 120.505 66.3541 119.754 68.9795 118.72C71.2513 117.9 73.4973 117.171 75.9498 116.248C77.7439 115.571 79.3768 114.899 81.1581 114.183C81.8749 113.93 82.5333 113.534 83.0942 113.021L60.8411 120.96Z" fill="black"/>
</g>
<g opacity="0.3">
<path d="M59.8279 118.107C62.6129 117.653 65.3412 116.902 67.9663 115.868C70.2381 115.048 72.4841 114.319 74.9366 113.396C76.7307 112.75 78.3636 112.047 80.1449 111.33C80.8629 111.08 81.5219 110.684 82.0811 110.169L59.8279 118.107Z" fill="black"/>
</g>
<path d="M54.3484 98.6354C54.2174 98.6467 54.0857 98.6467 53.9547 98.6354C53.703 98.6354 53.3093 98.6354 52.8382 98.6032C51.4693 98.5224 50.1081 98.3412 48.7657 98.061C46.7706 97.6527 44.8237 97.0363 42.9572 96.2217C38.3475 94.24 34.328 91.1009 31.2885 87.1087C30.0486 85.5023 28.978 83.7721 28.0938 81.9456C27.4986 80.7102 26.9939 79.4333 26.5836 78.1248C26.4287 77.6602 26.3512 77.2923 26.2802 77.047C26.2422 76.9221 26.212 76.795 26.1899 76.6663C26.2497 76.783 26.2952 76.9065 26.3254 77.0341C26.4093 77.2729 26.4997 77.6408 26.6675 78.0926C27.11 79.386 27.636 80.6493 28.2422 81.8746C31.3319 88.2151 36.5781 93.2486 43.0411 96.0732C44.8956 96.8876 46.8262 97.5167 48.8045 97.9513C50.1389 98.2404 51.4905 98.4431 52.8511 98.558C53.3351 98.6096 53.7095 98.6161 53.9676 98.6354H54.3484Z" fill="#263238"/>
<path d="M25.4415 70.5029C25.6017 71.0289 25.6928 71.5734 25.7125 72.1229C25.8056 72.6643 25.8208 73.2164 25.7577 73.7622C25.5975 73.2362 25.5063 72.6917 25.4866 72.1422C25.3935 71.6007 25.3783 71.0487 25.4415 70.5029Z" fill="#263238"/>
<path d="M83.8364 66.7015C83.8081 66.5932 83.7865 66.4833 83.7719 66.3724C83.7396 66.1336 83.6944 65.8173 83.6363 65.4172L83.546 64.7266C83.5008 64.4814 83.4363 64.2103 83.3782 63.9199C83.2491 63.339 83.1458 62.6743 82.92 61.9837C82.8167 61.6287 82.7134 61.2479 82.5973 60.8607C82.4811 60.4735 82.3197 60.0733 82.1778 59.6603C81.9067 58.8277 81.5324 57.9822 81.1064 57.0787C80.1789 55.1514 79.0634 53.3203 77.7762 51.6122C76.4621 49.9251 74.988 48.369 73.3746 46.9654C72.6066 46.32 71.8966 45.7327 71.1609 45.2551C70.7995 45.0034 70.4639 44.7452 70.1154 44.5323L69.115 43.932C68.4696 43.5254 67.8694 43.2479 67.3402 42.9704C67.0756 42.8413 66.8368 42.7058 66.6044 42.6025L65.959 42.3315L65.0748 41.9507C64.9695 41.9105 64.8679 41.8608 64.7715 41.8022C64.8799 41.8267 64.9858 41.8612 65.0877 41.9055L65.9913 42.2476L66.6367 42.4993C66.869 42.6025 67.1143 42.7316 67.3853 42.8542C67.9146 43.1253 68.5406 43.3899 69.1795 43.7901L70.1993 44.3838C70.5478 44.5968 70.8898 44.8485 71.2577 45.0937C71.9999 45.5778 72.7227 46.1845 73.4972 46.804C75.1319 48.2067 76.6216 49.7699 77.944 51.4702C79.2371 53.1952 80.3569 55.0435 81.2871 56.9883C81.6808 57.8983 82.081 58.7567 82.3456 59.5699C82.4875 59.9894 82.6424 60.3896 82.7586 60.7833C82.8748 61.1769 82.9651 61.5577 83.0619 61.9191C83.2412 62.5693 83.3856 63.2285 83.4944 63.894C83.546 64.1909 83.6041 64.462 83.6428 64.7137C83.6815 64.9654 83.688 65.1977 83.7138 65.4043C83.7525 65.8044 83.7848 66.1271 83.8106 66.3659C83.8349 66.476 83.8436 66.589 83.8364 66.7015Z" fill="white"/>
<g opacity="0.2">
<path d="M46.1003 48.1528C45.1387 47.0749 43.4284 46.6554 41.5826 46.7458C38.9781 46.9136 36.543 48.0952 34.7995 50.0373C29.6041 55.678 27.4162 61.009 27.7389 69.057C27.8486 71.7741 28.9071 75.9498 30.9659 77.9247C31.467 78.4261 32.066 78.819 32.7255 79.0788C33.3851 79.3386 34.0911 79.4599 34.7995 79.4349C38.5105 79.222 40.0272 75.0011 39.9627 71.5031C39.9046 68.2438 39.0914 64.8297 40.3564 61.8222C41.4019 59.3503 43.6672 57.6465 45.313 55.5167C46.9587 53.3869 47.8945 50.147 46.1003 48.1528Z" fill="white"/>
</g>
<g opacity="0.2">
<path d="M57.6529 42.7509C55.8781 41.2278 52.8318 41.415 51.4829 42.7122C50.9342 43.2673 50.5184 43.9396 50.2669 44.6785C50.0154 45.4174 49.9346 46.2037 50.0308 46.9783C50.1747 47.9079 50.5932 48.7734 51.2326 49.4634C51.8721 50.1534 52.7032 50.6365 53.6192 50.8506C54.5439 51.0286 55.5012 50.9097 56.3543 50.511C57.2074 50.1123 57.9127 49.4541 58.3693 48.6305C59.2341 46.9783 59.0728 43.9707 57.6529 42.7509Z" fill="white"/>
</g>
<path opacity="0.3" d="M49.6436 104.973C49.7275 105.206 52.2252 110.607 53.516 113.363C53.7512 113.864 54.0961 114.306 54.5251 114.656C54.9541 115.005 55.4562 115.254 55.9943 115.383L57.5949 115.764L82.294 107L83.2815 105.709C83.6238 105.265 83.8599 104.749 83.9718 104.199C84.0837 103.65 84.0683 103.082 83.9269 102.54L81.5906 93.6143L49.6436 104.973Z" fill="black"/>
<path d="M81.7842 93.5691C81.7842 93.6337 74.6849 96.2217 65.8236 99.3777C56.9624 102.534 49.8114 105.005 49.7921 104.947C49.7727 104.889 56.8914 102.295 65.7526 99.1389C74.6139 95.9829 81.7325 93.511 81.7842 93.5691Z" fill="#263238"/>
<path d="M83.7527 103.966C83.7527 104.031 77.189 106.419 69.0377 109.31C60.8864 112.202 54.2647 114.473 54.2453 114.435C54.226 114.396 60.809 111.989 68.9603 109.097C77.1116 106.206 83.7333 103.908 83.7527 103.966Z" fill="#263238"/>
<path d="M61.7254 31.8502C61.8158 31.8502 62.8097 26.687 63.9456 20.3428C65.0815 13.9986 65.9334 8.79676 65.843 8.7774C65.7527 8.75804 64.7523 13.9405 63.6164 20.2848C62.4805 26.629 61.6028 31.8502 61.7254 31.8502Z" fill="#263238"/>
<path d="M25.5833 9.94043e-05C25.4929 0.032369 28.5844 7.91907 32.4825 17.6129C36.3807 27.3067 39.5819 35.1353 39.698 35.103C39.8142 35.0707 36.6969 27.184 32.7988 17.4902C28.9006 7.79644 25.6866 -0.0321702 25.5833 9.94043e-05Z" fill="#263238"/>
<path d="M3.81415 29.6753C3.76252 29.7527 8.60943 32.9023 14.6374 36.723C20.6654 40.5437 25.5833 43.5706 25.6478 43.4673C25.7123 43.3641 20.8461 40.2404 14.8181 36.4132C8.79014 32.586 3.85933 29.5979 3.81415 29.6753Z" fill="#263238"/>
<path d="M4.3869e-05 60.9253C4.3869e-05 61.0221 4.279 60.6542 9.52605 60.1056C14.7731 59.557 19.0262 59.0407 19.0198 58.9504C19.0133 58.86 14.7473 59.2214 9.49378 59.77C4.24029 60.3186 -0.0064106 60.8349 4.3869e-05 60.9253Z" fill="#263238"/>
<path d="M48.2431 29.4816C48.3399 29.4816 48.0043 25.5124 47.5074 20.6397C47.0104 15.767 46.5264 11.843 46.436 11.843C46.3457 11.843 46.6748 15.8122 47.1718 20.6849C47.6687 25.5576 48.1721 29.4945 48.2431 29.4816Z" fill="#263238"/>
<path d="M18.6582 21.8918C18.7452 22.1202 18.8601 22.337 19.0002 22.5372C19.239 22.9374 19.594 23.4924 20.0522 24.1765C20.9687 25.5448 22.2982 27.4035 23.8794 29.3397C25.4606 31.2759 26.9902 32.9797 28.139 34.1608C28.7069 34.7481 29.1781 35.2192 29.5201 35.5354C29.6857 35.7072 29.8672 35.8628 30.0623 36.0001C29.9382 35.795 29.7861 35.6082 29.6105 35.4451C29.2555 35.045 28.8231 34.5674 28.3197 33.9994C27.2225 32.7796 25.7381 31.0758 24.1569 29.1332C22.5757 27.1905 21.2268 25.3705 20.2846 24.041L19.1293 22.4469C18.9959 22.243 18.8376 22.0566 18.6582 21.8918Z" fill="#263238"/>
<path d="M9.76472 46.9783C11.4267 47.615 13.1275 48.1453 14.8569 48.5659C16.549 49.1047 18.2735 49.5359 20.02 49.8567C18.3556 49.219 16.6527 48.6865 14.9214 48.2626C13.2308 47.728 11.5086 47.2991 9.76472 46.9783Z" fill="#263238"/>
<path d="M80.4803 108.517C79.7222 107.477 78.7465 106.616 77.6212 105.993C75.6851 104.902 71.8579 104.528 71.1157 103.257C70.3735 101.985 69.2247 103.321 69.8894 104.96C70.3089 106.006 73.1164 108.394 73.1164 108.394C73.1164 108.394 70.6316 109.581 68.6825 108.93C66.7335 108.278 60.2924 107.71 59.7826 108.697C59.2404 109.807 60.9056 109.807 61.6671 110.059C62.2544 110.246 66.7205 111.44 66.7205 111.44C66.7205 111.44 58.5886 112.802 57.6463 113.376C56.7041 113.951 57.9561 114.764 58.466 114.667C58.7951 114.615 57.9109 115.687 59.0791 116.403C59.8665 116.887 63.3258 116.939 64.2422 116.771L66.1268 116.416L60.5442 118.172C60.5442 118.172 59.7439 119.269 61.1895 119.462C61.8349 119.546 79.6349 118.533 80.9902 118.339C83.333 118.004 86.6567 117.41 86.6567 117.41L84.7528 107.781L80.4803 108.517Z" fill="#FFBE9D"/>
<path d="M66.7206 111.44C66.431 111.425 66.1407 111.444 65.8558 111.498C65.3007 111.563 64.5004 111.666 63.5194 111.821C62.5384 111.976 61.3638 112.169 60.073 112.466C59.3925 112.607 58.7237 112.799 58.0723 113.041C57.8841 113.11 57.7077 113.208 57.5496 113.331C57.5022 113.375 57.4609 113.425 57.4269 113.48L57.3624 113.615C57.3165 113.707 57.2818 113.805 57.2591 113.905C57.2351 114.017 57.2359 114.133 57.2615 114.245C57.2872 114.356 57.337 114.461 57.4076 114.551C57.5619 114.711 57.7591 114.823 57.9755 114.874C58.3569 114.941 58.7434 114.976 59.1308 114.977H60.2279C60.9443 114.977 61.6349 114.977 62.2932 114.977C63.6162 114.932 64.7973 114.835 65.7912 114.719C66.7851 114.603 67.579 114.48 68.1211 114.37C68.4098 114.337 68.6936 114.27 68.9666 114.17C68.6766 114.165 68.3869 114.188 68.1017 114.241C67.5531 114.306 66.7529 114.396 65.7654 114.486C64.778 114.577 63.5969 114.641 62.2867 114.667C61.6413 114.667 60.9443 114.667 60.2344 114.667L59.1437 114.628C58.7826 114.626 58.4223 114.595 58.0659 114.538C57.9127 114.504 57.772 114.428 57.6593 114.319C57.6187 114.265 57.5911 114.203 57.5788 114.137C57.5664 114.07 57.5697 114.002 57.5883 113.938C57.6073 113.86 57.6332 113.785 57.6657 113.712L57.7174 113.596C57.7174 113.596 57.7174 113.563 57.769 113.538C57.9012 113.443 58.0442 113.365 58.1949 113.305C58.827 113.07 59.4738 112.876 60.1311 112.724C61.4219 112.428 62.5707 112.208 63.5453 112.021L65.8622 111.595C66.152 111.566 66.439 111.514 66.7206 111.44Z" fill="#EB996E"/>
<path d="M29.4556 87.9155L27.6743 83.856C27.6743 83.856 31.3401 79.2091 31.3466 77.402L31.4176 76.35C31.4176 76.35 33.5861 74.2203 32.6696 72.7358C32.9472 71.5483 32.7342 70.8384 31.7209 70.89C31.7209 70.89 33.3796 69.3153 31.8435 67.8631C30.3075 66.411 24.2924 73.8007 24.2924 73.8007C24.2924 73.8007 21.5495 77.1374 22.9371 78.0668C22.9371 78.0668 22.04 80.3192 24.3183 81.0485C24.3183 81.0485 23.4663 82.6426 25.0153 84.4755L25.6607 85.2823C26.4082 86.1945 27.3497 86.9287 28.4165 87.4314L29.4556 87.9155Z" fill="#FFBE9D"/>
<path d="M25.2476 80.345C25.2476 80.345 25.0992 80.345 24.8862 80.4353C24.597 80.6071 24.3708 80.8673 24.2408 81.1775C24.0342 81.6524 24.0022 82.1851 24.1504 82.6813C24.335 83.2888 24.6328 83.856 25.0282 84.3529C25.71 85.2684 26.5108 86.0888 27.4097 86.7924C27.7655 87.1086 28.1711 87.3637 28.6101 87.5476C27.3919 86.5388 26.2803 85.4077 25.2928 84.1722C24.919 83.7082 24.6306 83.1816 24.4409 82.6168C24.2904 82.1819 24.2904 81.7092 24.4409 81.2743C24.5946 80.8808 24.8796 80.5525 25.2476 80.345Z" fill="#EB996E"/>
<path d="M25.6673 76.505C25.7512 76.5631 26.8549 75.0077 28.5523 73.3942C30.2496 71.7807 31.8502 70.7416 31.7792 70.6577C31.3815 70.7972 31.0089 70.9999 30.6756 71.2579C28.9865 72.384 27.5077 73.7972 26.3063 75.4336C26.04 75.7562 25.8246 76.1174 25.6673 76.505Z" fill="#EB996E"/>
<path d="M26.5448 78.4023C26.6223 78.4669 27.8356 77.0406 29.533 75.4787C31.2304 73.9169 32.7212 72.7874 32.6632 72.71C30.248 74.1585 28.1636 76.0978 26.5448 78.4023Z" fill="#EB996E"/>
<path d="M24.4346 76.8018C24.4346 76.7115 23.7892 76.7567 23.2535 77.3311C22.7178 77.9055 22.7372 78.5573 22.8275 78.5509C22.9179 78.5444 23.047 78.0281 23.4729 77.557C23.8989 77.0858 24.4539 76.8922 24.4346 76.8018Z" fill="#EB996E"/>
<path d="M28.3908 80.1321C28.9469 79.5821 29.4503 78.9815 29.8946 78.3379C30.425 77.7664 30.9004 77.1463 31.3145 76.4856C30.0582 77.4456 29.0547 78.6971 28.3908 80.1321Z" fill="#EB996E"/>
<path d="M101.927 102.934C100.397 86.3858 97.6479 62.4934 97.6479 62.4934C97.6479 62.4934 99.7777 56.7688 100.926 54.2517L102.463 50.573L105.831 54.8649L118.449 59.2471C120.297 60.2551 121.915 61.6377 123.199 63.3066C125.471 66.3851 126.774 69.1151 127.459 74.1879C129.343 88.1607 132.286 107.555 129.595 112.047C128.878 113.247 125.568 115.125 120.817 116.848L125.703 151.248C119.178 156.263 114.273 155.707 104.773 152.668C104.773 152.668 103.398 132.222 103.024 121.366C94.4145 123.212 87.1667 124.632 87.1667 124.632L84.4109 108.065L101.927 102.934Z" fill="#455A64"/>
<path d="M112.466 99.6165C113.656 99.9447 114.793 100.442 115.842 101.094C116.827 101.841 117.697 102.728 118.423 103.728C118.333 103.363 118.166 103.022 117.933 102.727C116.905 101.218 115.352 100.145 113.576 99.7198C113.218 99.6073 112.839 99.5721 112.466 99.6165Z" fill="#263238"/>
<path d="M115.441 75.95C115.579 75.3715 115.663 74.7818 115.693 74.1881C115.809 73.0973 115.971 71.6065 116.184 69.9285C116.506 67.3469 116.829 65.1074 116.939 64.2942H116.829C116.829 64.5394 116.829 64.6685 116.829 64.6685C116.829 64.6685 116.881 64.5523 116.939 64.3071H116.823C116.388 66.1606 116.061 68.0374 115.842 69.9285C115.629 71.5936 115.506 73.1103 115.448 74.2074C115.388 74.7866 115.386 75.3704 115.441 75.95Z" fill="#263238"/>
<path d="M112.408 83.0042C112.398 83.1007 112.398 83.198 112.408 83.2946C112.408 83.5076 112.408 83.7915 112.408 84.1529C112.408 84.921 112.408 86.031 112.466 87.4509C112.531 90.3294 112.627 94.4728 112.744 99.5972L112.827 99.481L84.4302 107.749L84.2882 107.787V107.936L85.3402 114.293L87.0376 124.496V124.658H87.1989C99.1064 122.722 109.471 120.514 116.713 118.307C119.575 117.47 122.364 116.4 125.051 115.106L126.284 114.461L127.129 113.912L127.646 113.564C127.704 113.527 127.76 113.486 127.813 113.441C127.748 113.468 127.685 113.503 127.626 113.544L127.097 113.86L126.239 114.383L125.006 114.99C122.313 116.217 119.53 117.236 116.68 118.036C109.446 120.185 99.0806 122.347 87.1796 124.271L87.3732 124.406L85.6758 114.196C85.3144 112.021 84.9594 109.872 84.6173 107.839L84.5012 108.026L112.898 99.6746H112.989V99.6166C112.827 94.4921 112.698 90.3487 112.608 87.4703C112.556 86.0504 112.511 84.9468 112.485 84.1788C112.485 83.8109 112.485 83.5334 112.447 83.3204C112.442 83.2141 112.429 83.1084 112.408 83.0042Z" fill="#263238"/>
<path opacity="0.3" d="M105.657 55.3296C105.554 55.8459 101.385 69.6767 101.385 69.6767C101.089 67.7868 100.624 65.9271 99.9971 64.1198C99.1 61.9642 99.5066 61.8674 99.5066 61.8674C99.5066 61.8674 100.952 62.3837 101.482 64.5781C101.578 64.9718 101.778 66.2626 101.778 66.2626L105.657 55.3296Z" fill="black"/>
<path d="M97.9835 64.2231C98.0225 64.0102 98.042 63.7941 98.0416 63.5777C98.0349 63.2935 98.089 63.0111 98.2003 62.7495C98.3116 62.488 98.4775 62.2532 98.687 62.061C98.8292 61.9407 99.0044 61.8659 99.1896 61.8463C99.3749 61.8267 99.5618 61.8633 99.7261 61.9513C100.106 62.2104 100.421 62.5525 100.649 62.9516C101.246 63.8725 101.591 64.9341 101.649 66.0302L101.695 66.9402L101.972 66.0753C102.146 65.5397 102.327 64.9846 102.527 64.4231C103.463 61.7641 104.463 59.402 105.051 57.6465C105.354 56.7688 105.58 56.0524 105.728 55.5554C105.815 55.2998 105.876 55.036 105.909 54.7681C105.783 55.0076 105.679 55.2582 105.599 55.5167L104.825 57.5626C104.179 59.2923 103.147 61.6415 102.204 64.3134C102.011 64.8814 101.824 65.4364 101.656 65.9721L101.985 66.0173C101.915 64.8627 101.536 63.7482 100.888 62.7903C100.631 62.3559 100.272 61.9905 99.8422 61.7254C99.6351 61.6204 99.4012 61.5803 99.171 61.6102C98.9407 61.6401 98.7248 61.7388 98.5515 61.8932C98.2716 62.1258 98.0746 62.4428 97.99 62.7967C97.9266 63.0521 97.8962 63.3146 97.8996 63.5777C97.8962 63.7957 97.9244 64.0131 97.9835 64.2231Z" fill="#263238"/>
</svg>
